<svg width="100" height="100" viewBox="0 0 100 100" xmlns="http://www.w3.org/2000/svg">
<defs>
<linearGradient id="glassGrad" x1="0%" y1="0%" x2="100%" y2="100%">
<stop offset="0%" stop-color="#00FFFF" />
<stop offset="50%" stop-color="#0055FF" />
<stop offset="100%" stop-color="#9900FF" />
</linearGradient>
<filter id="frostedGlass" x="-20%" y="-20%" width="140%" height="140%">
<feGaussianBlur in="SourceGraphic" stdDeviation="1.8" result="blur" />
<feComposite in="SourceGraphic" in2="blur" operator="over" />
</filter>
<filter id="outerGlow" x="-50%" y="-50%" width="200%" height="200%">
<feDropShadow dx="0" dy="2" stdDeviation="3.5" flood-color="#00FFFF" flood-opacity="0.4" />
</filter>
</defs>
<g filter="url(#outerGlow)">
<path d="M44,74 L41,83 L59,83 L56,74 Z" fill="url(#glassGrad)" fill-opacity="0.2" stroke="url(#glassGrad)" stroke-width="1" stroke-opacity="0.4" />
<path d="M32,83 L68,83" stroke="url(#glassGrad)" stroke-width="1.5" stroke-linecap="round" stroke-opacity="0.6" />
<path d="M18,31 Q18,26 23,26 L40,26 L45,31 L77,31 Q82,31 82,36 L82,69 Q82,74 77,74 L23,74 Q18,74 18,69 Z" fill="url(#glassGrad)" fill-opacity="0.25" filter="url(#frostedGlass)" stroke="url(#glassGrad)" stroke-width="1.2" stroke-opacity="0.5" />
<path d="M22,31 L45,31 L45,32 Q45,35 42,35 L22,48 Z" fill="#FFFFFF" fill-opacity="0.12" />
<rect x="25" y="40" width="50" height="25" rx="2" fill="url(#glassGrad)" fill-opacity="0.1" stroke="url(#glassGrad)" stroke-width="0.8" stroke-opacity="0.3" />
</g>
</svg>
