<svg width="100" height="100" viewBox="0 0 100 100" xmlns="http://www.w3.org/2000/svg">
<defs>
<linearGradient id="mainGrad" x1="0%" y1="0%" x2="100%" y2="100%">
<stop offset="0%" stop-color="#00FFFF" />
<stop offset="50%" stop-color="#0055FF" />
<stop offset="100%" stop-color="#9900FF" />
</linearGradient>
<filter id="frost" x="-20%" y="-20%" width="140%" height="140%">
<feGaussianBlur in="SourceGraphic" stdDeviation="1.8" result="blur" />
<feComposite in="SourceGraphic" in2="blur" operator="over" />
</filter>
<filter id="glow" x="-50%" y="-50%" width="200%" height="200%">
<feDropShadow dx="0" dy="2" stdDeviation="3.5" flood-color="#00FFFF" flood-opacity="0.45" />
</filter>
</defs>
<g filter="url(#glow)">
<path d="M15,33 Q15,28 20,28 L38,28 L43,23 Q45,21 48,21 L80,21 Q85,21 85,26 L85,33" fill="none" stroke="url(#mainGrad)" stroke-width="1.2" stroke-opacity="0.4" />
<path d="M15,35 Q15,30 20,30 L80,30 Q85,30 85,35 L85,75 Q85,80 80,80 L20,80 Q15,80 15,75 Z" fill="url(#mainGrad)" fill-opacity="0.22" filter="url(#frost)" stroke="url(#mainGrad)" stroke-width="1.5" stroke-opacity="0.5" />
<path d="M18,33 L45,33 L45,35 L18,48 Z" fill="#FFFFFF" fill-opacity="0.12" />
<g transform="translate(0, 3)">
<path d="M43,45 L43,39 C43,34 57,34 57,39 L57,45" fill="none" stroke="url(#mainGrad)" stroke-width="2.5" stroke-opacity="0.9" stroke-linecap="round" />
<rect x="38" y="45" width="24" height="18" rx="3" fill="url(#mainGrad)" fill-opacity="0.85" stroke="url(#mainGrad)" stroke-width="1" />
<circle cx="50" cy="52" r="2.5" fill="#FFFFFF" fill-opacity="0.9" />
<path d="M48.8,53 L51.2,53 L52,58 L48,58 Z" fill="#FFFFFF" fill-opacity="0.9" />
</g>
</g>
</svg>
