<svg xmlns="http://www.w3.org/2000/svg" viewBox="0 0 1000 1000">
  <path fill="#000000" fill-rule="evenodd" d="M 503.0,776.5 L 455.0,774.5 L 416.0,766.5 L 389.0,756.5 L 365.0,744.5 L 334.0,723.5 L 306.5,697.0 L 279.5,662.0 L 263.5,630.0 L 248.5,585.0 L 244.5,559.0 L 243.5,520.0 L 249.5,481.0 L 262.5,441.0 L 274.5,418.0 L 295.5,389.0 L 328.0,358.5 L 360.0,338.5 L 383.0,328.5 L 404.0,321.5 L 437.0,314.5 L 485.0,312.5 L 488.0,314.5 L 504.0,314.5 L 505.5,313.0 L 503.0,309.5 L 466.0,285.5 L 440.0,264.5 L 407.5,232.0 L 389.0,207.5 L 425.0,229.5 L 449.0,241.5 L 585.0,303.5 L 634.0,329.5 L 659.5,353.0 L 668.5,367.0 L 676.5,388.0 L 687.5,404.0 L 705.0,420.5 L 717.0,428.5 L 742.0,439.5 L 756.0,441.5 L 763.5,453.0 L 767.5,466.0 L 768.5,479.0 L 765.5,499.0 L 757.5,515.0 L 748.0,524.5 L 738.5,510.0 L 725.0,496.5 L 704.0,482.5 L 696.0,478.5 L 671.0,471.5 L 659.0,469.5 L 644.5,470.0 L 647.0,473.5 L 662.0,478.5 L 688.0,492.5 L 724.5,519.0 L 720.5,532.0 L 713.5,544.0 L 707.0,550.5 L 694.0,557.5 L 690.5,557.0 L 678.5,534.0 L 662.0,515.5 L 638.0,497.5 L 614.0,485.5 L 594.0,478.5 L 561.0,473.5 L 522.0,472.5 L 501.0,465.5 L 492.5,453.0 L 491.5,439.0 L 494.5,430.0 L 493.0,426.5 L 475.0,423.5 L 460.0,423.5 L 428.0,430.5 L 402.0,444.5 L 374.5,470.0 L 362.5,485.0 L 353.5,502.0 L 342.5,539.0 L 340.5,575.0 L 342.5,594.0 L 344.5,596.0 L 347.5,613.0 L 350.0,613.5 L 351.5,610.0 L 354.5,591.0 L 356.5,589.0 L 367.0,554.5 L 372.5,596.0 L 378.5,613.0 L 394.5,641.0 L 410.5,661.0 L 429.0,678.5 L 449.0,692.5 L 469.0,702.5 L 497.0,711.5 L 526.0,716.5 L 566.0,715.5 L 605.0,706.5 L 641.0,690.5 L 665.0,674.5 L 693.5,648.0 L 711.5,626.0 L 709.5,634.0 L 685.5,678.0 L 669.5,698.0 L 636.0,728.5 L 597.0,752.5 L 573.0,762.5 L 538.0,772.5 L 536.0,771.5 L 503.0,776.5 Z M 670.5,417.0 L 670.5,413.0 L 661.0,403.5 L 620.0,375.5 L 588.0,359.5 L 575.0,358.5 L 573.5,360.0 L 584.5,368.0 L 587.5,374.0 L 593.5,379.0 L 595.5,384.0 L 600.5,388.0 L 615.0,407.5 L 628.0,412.5 L 670.5,417.0 Z" />
</svg>

